<?xml version="1.0" encoding="UTF-8"?>
<svg xmlns="http://www.w3.org/2000/svg" xmlns:xlink="http://www.w3.org/1999/xlink" width="129px" height="111px" viewBox="0 0 128 111" version="1.1">
<g id="surface1">
<path style=" stroke:none;fill-rule:nonzero;fill:rgb(85.882353%,95.294118%,100%);fill-opacity:1;" d="M 5.78125 62.210938 L 122.558594 62.210938 L 122.558594 99.628906 L 5.78125 99.628906 Z M 5.78125 62.210938 "/>
<path style=" stroke:none;fill-rule:nonzero;fill:rgb(56.078431%,66.666667%,54.901961%);fill-opacity:1;" d="M 2.164062 97.019531 L 125.636719 97.019531 L 125.636719 106.480469 L 2.164062 106.480469 Z M 2.164062 97.019531 "/>
<path style=" stroke:none;fill-rule:nonzero;fill:rgb(76.078431%,76.078431%,76.862745%);fill-opacity:1;" d="M 5.746094 89.117188 L 122.570312 89.117188 L 122.570312 99.640625 L 5.746094 99.640625 Z M 5.746094 89.117188 "/>
<path style=" stroke:none;fill-rule:nonzero;fill:rgb(85.882353%,95.294118%,100%);fill-opacity:1;" d="M 11.777344 15.710938 L 116.238281 15.710938 L 116.238281 60.46875 L 11.777344 60.46875 Z M 11.777344 15.710938 "/>
<path style=" stroke:none;fill-rule:nonzero;fill:rgb(73.333333%,86.666667%,90.980392%);fill-opacity:1;" d="M 122.558594 73.441406 C 122.558594 73.441406 65.835938 63.511719 5.855469 62.242188 C 25.109375 61.953125 122.601562 62.242188 122.601562 62.242188 Z M 122.558594 73.441406 "/>
<path style=" stroke:none;fill-rule:nonzero;fill:rgb(73.333333%,86.666667%,90.980392%);fill-opacity:1;" d="M 116.238281 23.542969 C 116.238281 23.542969 66.039062 16.679688 13.039062 15.8125 C 30.050781 15.617188 116.238281 15.820312 116.238281 15.820312 Z M 116.238281 23.542969 "/>
<path style=" stroke:none;fill-rule:nonzero;fill:rgb(96.078431%,97.647059%,100%);fill-opacity:1;" d="M 81.253906 61.953125 L 89.515625 61.953125 L 89.515625 99.398438 L 81.253906 99.398438 Z M 81.253906 61.953125 "/>
<path style=" stroke:none;fill-rule:nonzero;fill:rgb(96.078431%,97.647059%,100%);fill-opacity:1;" d="M 38.476562 61.953125 L 46.738281 61.953125 L 46.738281 99.398438 L 38.476562 99.398438 Z M 38.476562 61.953125 "/>
<path style=" stroke:none;fill-rule:nonzero;fill:rgb(34.509804%,39.607843%,100%);fill-opacity:1;" d="M 63.449219 36.886719 L 5.855469 62.242188 L 122.601562 62.242188 Z M 63.449219 36.886719 "/>
<path style=" stroke:none;fill-rule:nonzero;fill:rgb(32.156863%,41.960784%,99.607843%);fill-opacity:1;" d="M 63.367188 4.6875 L 11.769531 15.824219 L 116.265625 15.820312 Z M 63.367188 4.6875 "/>
<path style=" stroke:none;fill-rule:nonzero;fill:rgb(100%,100%,100%);fill-opacity:1;" d="M 70.769531 50.40625 C 70.769531 51.804688 70.40625 53.175781 69.710938 54.386719 C 69.015625 55.597656 68.019531 56.601562 66.816406 57.300781 C 65.617188 58 64.25 58.367188 62.863281 58.367188 C 61.476562 58.367188 60.113281 58 58.910156 57.300781 C 57.707031 56.601562 56.710938 55.597656 56.015625 54.386719 C 55.324219 53.175781 54.957031 51.804688 54.957031 50.40625 C 54.957031 49.007812 55.324219 47.636719 56.015625 46.425781 C 56.710938 45.214844 57.707031 44.210938 58.910156 43.511719 C 60.113281 42.8125 61.476562 42.445312 62.863281 42.445312 C 64.25 42.445312 65.617188 42.8125 66.816406 43.511719 C 68.019531 44.210938 69.015625 45.214844 69.710938 46.425781 C 70.40625 47.636719 70.769531 49.007812 70.769531 50.40625 Z M 70.769531 50.40625 "/>
<path style=" stroke:none;fill-rule:nonzero;fill:rgb(82.745098%,3.529412%,7.45098%);fill-opacity:1;" d="M 57.980469 50.585938 C 57.980469 51.402344 58.636719 52.0625 59.449219 52.0625 L 66.644531 52.0625 C 67.457031 52.0625 68.113281 51.402344 68.113281 50.585938 C 68.113281 49.769531 67.457031 49.105469 66.644531 49.105469 L 59.449219 49.105469 C 58.636719 49.105469 57.980469 49.769531 57.980469 50.585938 Z M 57.980469 50.585938 "/>
<path style=" stroke:none;fill-rule:nonzero;fill:rgb(82.745098%,3.529412%,7.45098%);fill-opacity:1;" d="M 62.976562 45.78125 C 62.167969 45.78125 61.507812 46.441406 61.507812 47.257812 L 61.507812 54.503906 C 61.507812 55.320312 62.167969 55.984375 62.976562 55.984375 C 63.789062 55.984375 64.445312 55.320312 64.445312 54.503906 L 64.445312 47.257812 C 64.445312 46.441406 63.789062 45.78125 62.976562 45.78125 Z M 62.976562 45.78125 "/>
<path style=" stroke:none;fill-rule:nonzero;fill:rgb(59.215686%,70.196078%,86.666667%);fill-opacity:1;" d="M 98.21875 24.285156 L 109.328125 24.285156 L 109.328125 42.824219 L 98.21875 42.824219 Z M 98.21875 24.285156 "/>
<path style=" stroke:none;fill-rule:nonzero;fill:rgb(100%,100%,100%);fill-opacity:1;" d="M 97.492188 23.550781 L 97.492188 43.558594 L 98.21875 43.558594 L 98.21875 42.824219 L 98.949219 42.824219 L 98.949219 25.015625 L 108.597656 25.015625 L 108.597656 42.089844 L 98.21875 42.089844 L 98.21875 42.824219 L 98.949219 42.824219 L 98.21875 42.824219 L 98.21875 43.558594 L 110.054688 43.558594 L 110.054688 23.550781 Z M 97.492188 23.550781 "/>
<path style=" stroke:none;fill-rule:nonzero;fill:rgb(59.215686%,70.196078%,86.666667%);fill-opacity:1;" d="M 98.949219 86.875 L 110.054688 86.875 L 110.054688 68.335938 L 98.949219 68.335938 Z M 98.949219 86.875 "/>
<path style=" stroke:none;fill-rule:nonzero;fill:rgb(100%,100%,100%);fill-opacity:1;" d="M 98.222656 67.601562 L 98.222656 87.609375 L 98.949219 87.609375 L 98.949219 86.875 L 99.675781 86.875 L 99.675781 69.066406 L 109.328125 69.066406 L 109.328125 86.140625 L 98.949219 86.140625 L 98.949219 86.875 L 99.675781 86.875 L 98.949219 86.875 L 98.949219 87.609375 L 110.785156 87.609375 L 110.785156 67.601562 Z M 98.222656 67.601562 "/>
<path style=" stroke:none;fill-rule:nonzero;fill:rgb(59.215686%,70.196078%,86.666667%);fill-opacity:1;" d="M 18.582031 68.660156 L 29.6875 68.660156 L 29.6875 87.199219 L 18.582031 87.199219 Z M 18.582031 68.660156 "/>
<path style=" stroke:none;fill-rule:nonzero;fill:rgb(100%,100%,100%);fill-opacity:1;" d="M 17.851562 67.925781 L 17.851562 87.933594 L 18.582031 87.933594 L 18.582031 87.199219 L 19.308594 87.199219 L 19.308594 69.394531 L 28.960938 69.394531 L 28.960938 86.46875 L 18.582031 86.46875 L 18.582031 87.199219 L 19.308594 87.199219 L 18.582031 87.199219 L 18.582031 87.933594 L 30.414062 87.933594 L 30.414062 67.925781 Z M 17.851562 67.925781 "/>
<path style=" stroke:none;fill-rule:nonzero;fill:rgb(59.215686%,70.196078%,86.666667%);fill-opacity:1;" d="M 81.214844 24.089844 L 92.320312 24.089844 L 92.320312 42.628906 L 81.214844 42.628906 Z M 81.214844 24.089844 "/>
<path style=" stroke:none;fill-rule:nonzero;fill:rgb(100%,100%,100%);fill-opacity:1;" d="M 80.484375 23.355469 L 80.484375 43.363281 L 81.214844 43.363281 L 81.214844 42.628906 L 81.941406 42.628906 L 81.941406 24.820312 L 91.59375 24.820312 L 91.59375 41.898438 L 81.214844 41.898438 L 81.214844 42.628906 L 81.941406 42.628906 L 81.214844 42.628906 L 81.214844 43.363281 L 93.046875 43.363281 L 93.046875 23.355469 Z M 80.484375 23.355469 "/>
<path style=" stroke:none;fill-rule:nonzero;fill:rgb(59.215686%,70.196078%,86.666667%);fill-opacity:1;" d="M 35.550781 24.085938 L 46.65625 24.085938 L 46.65625 42.628906 L 35.550781 42.628906 Z M 35.550781 24.085938 "/>
<path style=" stroke:none;fill-rule:nonzero;fill:rgb(100%,100%,100%);fill-opacity:1;" d="M 34.824219 23.355469 L 34.824219 43.359375 L 35.550781 43.359375 L 35.550781 42.628906 L 36.277344 42.628906 L 36.277344 24.820312 L 45.929688 24.820312 L 45.929688 41.894531 L 35.550781 41.894531 L 35.550781 42.628906 L 36.277344 42.628906 L 35.550781 42.628906 L 35.550781 43.359375 L 47.386719 43.359375 L 47.386719 23.355469 Z M 34.824219 23.355469 "/>
<path style=" stroke:none;fill-rule:nonzero;fill:rgb(59.215686%,70.196078%,86.666667%);fill-opacity:1;" d="M 18.4375 24.109375 L 29.542969 24.109375 L 29.542969 42.652344 L 18.4375 42.652344 Z M 18.4375 24.109375 "/>
<path style=" stroke:none;fill-rule:nonzero;fill:rgb(100%,100%,100%);fill-opacity:1;" d="M 17.707031 23.378906 L 17.707031 43.382812 L 18.4375 43.382812 L 18.4375 42.652344 L 19.164062 42.652344 L 19.164062 24.84375 L 28.816406 24.84375 L 28.816406 41.917969 L 18.4375 41.917969 L 18.4375 42.652344 L 19.164062 42.652344 L 18.4375 42.652344 L 18.4375 43.382812 L 30.269531 43.382812 L 30.269531 23.378906 Z M 17.707031 23.378906 "/>
<path style=" stroke:none;fill-rule:nonzero;fill:rgb(59.215686%,70.196078%,86.666667%);fill-opacity:1;" d="M 74.484375 35.070312 C 74.375 29.015625 69.578125 24.140625 63.679688 24.140625 C 57.78125 24.140625 52.988281 29.015625 52.878906 35.070312 Z M 74.484375 35.070312 "/>
<path style=" stroke:none;fill-rule:nonzero;fill:rgb(100%,100%,100%);fill-opacity:1;" d="M 74.484375 35.070312 L 75.210938 35.058594 C 75.152344 31.835938 73.847656 28.921875 71.769531 26.816406 C 69.691406 24.710938 66.832031 23.40625 63.679688 23.40625 C 60.53125 23.40625 57.667969 24.710938 55.589844 26.816406 C 53.511719 28.921875 52.207031 31.835938 52.148438 35.058594 L 52.136719 35.804688 L 75.226562 35.804688 L 75.210938 35.058594 L 74.484375 35.070312 L 74.484375 34.335938 L 52.878906 34.335938 L 52.878906 35.070312 L 53.605469 35.085938 C 53.660156 32.25 54.804688 29.699219 56.625 27.851562 C 58.449219 26.007812 60.933594 24.875 63.679688 24.875 C 66.429688 24.875 68.914062 26.007812 70.734375 27.851562 C 72.554688 29.699219 73.703125 32.25 73.753906 35.085938 L 74.484375 35.070312 L 74.484375 34.335938 Z M 74.484375 35.070312 "/>
<path style=" stroke:none;fill-rule:nonzero;fill:rgb(100%,100%,100%);fill-opacity:1;" d="M 53.871094 67.910156 L 73.3125 67.910156 L 73.3125 99.722656 L 53.871094 99.722656 Z M 53.871094 67.910156 "/>
<path style=" stroke:none;fill-rule:nonzero;fill:rgb(86.666667%,88.627451%,90.980392%);fill-opacity:1;" d="M 36.046875 98.90625 L 92.191406 98.90625 L 92.191406 102.332031 L 36.046875 102.332031 Z M 36.046875 98.90625 "/>
<path style=" stroke:none;fill-rule:nonzero;fill:rgb(85.098039%,86.666667%,89.411765%);fill-opacity:1;" d="M 98.222656 67.609375 L 98.171875 67.609375 L 98.210938 69.769531 L 98.222656 69.773438 Z M 98.222656 67.609375 "/>
<path style=" stroke:none;fill-rule:nonzero;fill:rgb(80.784314%,83.529412%,88.235294%);fill-opacity:1;" d="M 109.328125 69.066406 L 99.675781 69.066406 L 99.675781 69.980469 L 109.328125 71.359375 Z M 109.328125 69.066406 "/>
<path style=" stroke:none;fill-rule:nonzero;fill:rgb(91.764706%,91.764706%,91.764706%);fill-opacity:1;" d="M 99.675781 69.066406 L 109.328125 69.066406 L 109.328125 71.359375 L 110.769531 71.566406 L 110.769531 67.609375 L 98.222656 67.609375 L 98.222656 69.773438 L 99.675781 69.980469 Z M 99.675781 69.066406 "/>
<path style=" stroke:none;fill-rule:nonzero;fill:rgb(48.627451%,59.607843%,75.686275%);fill-opacity:1;" d="M 109.3125 71.320312 L 109.3125 69.035156 L 99.710938 69.035156 L 99.710938 69.976562 Z M 109.3125 71.320312 "/>
<path style=" stroke:none;fill-rule:nonzero;fill:rgb(48.627451%,59.607843%,75.686275%);fill-opacity:1;" d="M 108.554688 28.027344 L 108.554688 25.09375 L 98.957031 25.09375 L 98.957031 26.296875 Z M 108.554688 28.027344 "/>
<path style=" stroke:none;fill-rule:nonzero;fill:rgb(48.627451%,59.607843%,75.686275%);fill-opacity:1;" d="M 91.582031 27.824219 L 91.582031 24.886719 L 81.980469 24.886719 L 81.980469 26.09375 Z M 91.582031 27.824219 "/>
<path style=" stroke:none;fill-rule:nonzero;fill:rgb(48.627451%,59.607843%,75.686275%);fill-opacity:1;" d="M 45.925781 27.785156 L 45.925781 24.847656 L 36.328125 24.847656 L 36.328125 26.054688 Z M 45.925781 27.785156 "/>
<path style=" stroke:none;fill-rule:nonzero;fill:rgb(48.627451%,59.607843%,75.686275%);fill-opacity:1;" d="M 28.792969 27.785156 L 28.792969 24.847656 L 19.191406 24.847656 L 19.191406 26.054688 Z M 28.792969 27.785156 "/>
<path style=" stroke:none;fill-rule:nonzero;fill:rgb(48.627451%,59.607843%,75.686275%);fill-opacity:1;" d="M 28.953125 72.410156 L 28.953125 69.472656 L 19.351562 69.472656 L 19.351562 70.679688 Z M 28.953125 72.410156 "/>
<path style=" stroke:none;fill-rule:nonzero;fill:rgb(48.627451%,59.607843%,75.686275%);fill-opacity:1;" d="M 72.597656 30.503906 L 56.878906 27.621094 C 56.878906 27.621094 60.335938 23.921875 66.113281 25.171875 C 68.707031 25.878906 71.570312 27.949219 72.597656 30.503906 Z M 72.597656 30.503906 "/>
<path style=" stroke:none;fill-rule:nonzero;fill:rgb(93.72549%,93.72549%,93.72549%);fill-opacity:1;" d="M 64.363281 82.523438 L 71.707031 82.523438 L 71.707031 96.609375 L 64.363281 96.609375 Z M 64.363281 82.523438 "/>
<path style=" stroke:none;fill-rule:nonzero;fill:rgb(93.72549%,93.72549%,93.72549%);fill-opacity:1;" d="M 55.554688 82.523438 L 62.894531 82.523438 L 62.894531 96.609375 L 55.554688 96.609375 Z M 55.554688 82.523438 "/>
<path style=" stroke:none;fill-rule:nonzero;fill:rgb(93.72549%,93.72549%,93.72549%);fill-opacity:1;" d="M 64.285156 69.636719 L 71.625 69.636719 L 71.625 80.785156 L 64.285156 80.785156 Z M 64.285156 69.636719 "/>
<path style=" stroke:none;fill-rule:nonzero;fill:rgb(93.72549%,93.72549%,93.72549%);fill-opacity:1;" d="M 55.472656 69.636719 L 62.816406 69.636719 L 62.816406 80.785156 L 55.472656 80.785156 Z M 55.472656 69.636719 "/>
</g>
</svg>
