<?xml version="1.0" encoding="UTF-8"?>
<svg xmlns="http://www.w3.org/2000/svg" xmlns:xlink="http://www.w3.org/1999/xlink" width="673px" height="673px" viewBox="0 0 673 673" version="1.1">
<g id="surface1">
<path style=" stroke:none;fill-rule:nonzero;fill:rgb(32.156863%,41.568627%,100%);fill-opacity:1;" d="M 552.585938 460.375 C 552.585938 460.375 552.585938 418.515625 518.222656 399.769531 C 508.605469 394.527344 497.445312 388.503906 486.355469 382.554688 C 461.78125 482.261719 426.378906 511.960938 419.976562 516.640625 C 423.816406 522.910156 431.664062 539.84375 424.921875 565.546875 C 430.070312 569.722656 432.6875 576.597656 431.070312 583.484375 C 428.816406 593.078125 419.207031 599.023438 409.613281 596.769531 C 400.023438 594.511719 394.074219 584.90625 396.328125 575.3125 C 397.996094 568.214844 403.695312 563.121094 410.433594 561.863281 C 412.5 553.070312 416.558594 542.125 406.28125 519.339844 C 379.628906 516.859375 371.367188 525.753906 363.207031 530.296875 C 363.761719 532.820312 363.792969 535.496094 363.160156 538.179688 C 360.90625 547.773438 351.300781 553.722656 341.707031 551.464844 C 339.5 550.949219 337.503906 550.027344 335.738281 548.824219 L 335.738281 548.828125 C 335.730469 548.824219 335.726562 548.820312 335.71875 548.816406 C 335.378906 548.59375 335.402344 548.589844 335.027344 548.316406 C 329.574219 544.1875 326.753906 537.097656 328.421875 530.011719 C 329.433594 525.707031 331.929688 522.148438 335.230469 519.726562 L 335.640625 519.445312 C 339.648438 516.667969 344.757812 515.519531 349.878906 516.726562 C 351.578125 517.125 353.152344 517.765625 354.597656 518.582031 C 354.664062 518.355469 354.746094 518.179688 354.847656 518.078125 C 378.421875 501.507812 398.25 503.9375 405.402344 505.636719 C 440.253906 492.21875 464.132812 407.394531 472.097656 374.917969 C 449.148438 362.644531 429.742188 352.363281 429.742188 352.363281 L 368.320312 482.191406 L 356.644531 452.171875 L 374.363281 427.730469 L 355.238281 379.074219 L 335.714844 378.542969 L 335.714844 378.527344 L 335.453125 378.535156 L 335.160156 378.527344 L 335.160156 378.542969 L 315.636719 379.074219 L 296.507812 427.730469 L 314.230469 452.171875 L 302.550781 482.191406 L 241.132812 352.363281 C 241.132812 352.363281 217.117188 365.085938 190.921875 379.117188 C 193.78125 392.761719 206.054688 441.585938 242.230469 483.78125 C 246.054688 482.484375 250.144531 481.773438 254.40625 481.773438 C 275.367188 481.773438 292.359375 498.769531 292.359375 519.730469 C 292.359375 540.691406 275.367188 557.683594 254.40625 557.683594 C 233.441406 557.683594 216.449219 540.691406 216.449219 519.730469 C 216.449219 508.292969 221.515625 498.042969 229.519531 491.085938 C 223.734375 484.367188 196.558594 451.953125 178.332031 385.875 C 169.328125 390.71875 160.480469 395.5 152.652344 399.769531 C 118.289062 418.515625 118.289062 460.375 118.289062 460.375 C 118.289062 460.375 117.039062 595.332031 118.289062 609.074219 C 207.917969 658.507812 305.5625 660.710938 329.535156 660.445312 L 341.425781 660.445312 C 365.546875 660.703125 463.0625 658.449219 552.585938 609.074219 C 553.835938 595.328125 552.585938 460.375 552.585938 460.375 Z M 552.585938 460.375 "/>
<path style=" stroke:none;fill-rule:nonzero;fill:rgb(32.156863%,41.568627%,100%);fill-opacity:1;" d="M 276.898438 519.964844 C 276.898438 525.863281 274.550781 531.53125 270.378906 535.703125 C 266.203125 539.875 260.539062 542.222656 254.640625 542.222656 C 248.738281 542.222656 243.074219 539.875 238.898438 535.703125 C 234.726562 531.53125 232.382812 525.863281 232.382812 519.964844 C 232.382812 514.0625 234.726562 508.398438 238.898438 504.226562 C 243.074219 500.054688 248.738281 497.707031 254.640625 497.707031 C 260.539062 497.707031 266.203125 500.054688 270.378906 504.226562 C 274.550781 508.398438 276.898438 514.0625 276.898438 519.964844 Z M 276.898438 519.964844 "/>
<path style=" stroke:none;fill-rule:nonzero;fill:rgb(32.156863%,41.568627%,100%);fill-opacity:1;" d="M 467.613281 46.765625 C 328.195312 -29.445312 200.515625 46.765625 200.515625 46.765625 C 200.515625 46.765625 201.453125 125.035156 201.453125 156.414062 C 375.015625 110.089844 467.613281 163.914062 467.613281 163.914062 C 467.613281 163.914062 468.550781 99.246094 467.613281 46.765625 Z M 363.171875 91.644531 L 346.183594 91.644531 L 346.183594 109.984375 C 346.183594 116.121094 341.207031 121.097656 335.066406 121.097656 C 328.929688 121.097656 323.953125 116.121094 323.953125 109.984375 L 323.953125 91.644531 L 306.179688 91.644531 C 299.757812 91.644531 294.546875 86.664062 294.546875 80.527344 C 294.546875 74.390625 299.753906 69.410156 306.179688 69.410156 L 323.953125 69.410156 L 323.953125 55.519531 C 323.953125 49.378906 328.929688 44.402344 335.066406 44.402344 C 341.207031 44.402344 346.183594 49.378906 346.183594 55.519531 L 346.183594 69.410156 L 363.171875 69.410156 C 369.59375 69.410156 374.804688 74.390625 374.804688 80.527344 C 374.804688 86.664062 369.59375 91.644531 363.171875 91.644531 Z M 363.171875 91.644531 "/>
<path style=" stroke:none;fill-rule:nonzero;fill:rgb(32.156863%,41.568627%,100%);fill-opacity:1;" d="M 223.476562 260.207031 C 223.476562 260.207031 250.1875 329.324219 316.101562 343.226562 C 323.910156 344.789062 360.226562 354.941406 405.523438 319.953125 C 417.679688 309.71875 429.980469 293.96875 442.777344 273.5625 C 444.042969 271.546875 444.417969 270.75 445.121094 270.984375 C 442.777344 278.953125 422.394531 317.84375 385.765625 336.667969 C 370.773438 343.226562 354.527344 351.347656 325.160156 348.222656 C 310.480469 345.414062 283.613281 337.914062 262.058594 318.859375 C 253 309.800781 237.691406 294.804688 227.070312 270.4375 C 221.132812 258.800781 223.476562 260.207031 223.476562 260.207031 Z M 223.476562 260.207031 "/>
<path style=" stroke:none;fill-rule:nonzero;fill:rgb(32.156863%,41.568627%,100%);fill-opacity:1;" d="M 449.449219 101.445312 C 458.070312 123.90625 462.925781 149.257812 462.925781 176.097656 C 462.925781 268.226562 405.757812 342.914062 335.234375 342.914062 C 264.714844 342.914062 207.546875 268.226562 207.546875 176.097656 C 207.546875 149.257812 212.40625 123.90625 221.023438 101.441406 C 210.355469 125.585938 204.265625 153.445312 204.265625 183.125 C 204.265625 275.257812 262.902344 349.941406 335.234375 349.941406 C 407.570312 349.941406 466.207031 275.257812 466.207031 183.125 C 466.207031 153.449219 460.117188 125.589844 449.449219 101.445312 Z M 449.449219 101.445312 "/>
</g>
</svg>
