<?xml version="1.0" encoding="UTF-8"?>
<svg xmlns="http://www.w3.org/2000/svg" xmlns:xlink="http://www.w3.org/1999/xlink" width="190px" height="150px" viewBox="0 0 190 150" version="1.1">
<g id="surface1">
<path style=" stroke:none;fill-rule:nonzero;fill:rgb(76.470588%,89.803922%,94.901961%);fill-opacity:1;" d="M 118.742188 39.628906 L 168.476562 79.183594 L 60.628906 129.191406 L 23.59375 76.503906 Z M 118.742188 39.628906 "/>
<path style=" stroke:none;fill-rule:nonzero;fill:rgb(100%,100%,100%);fill-opacity:1;" d="M 164.417969 73.621094 L 166.511719 76.929688 L 62.261719 125.601562 L 59.589844 121.140625 Z M 164.417969 73.621094 "/>
<path style=" stroke:none;fill-rule:nonzero;fill:rgb(85.882353%,95.294118%,100%);fill-opacity:1;" d="M 117.589844 33.867188 L 166.433594 74.199219 L 60.453125 124.78125 L 20.199219 71.34375 Z M 117.589844 33.867188 "/>
<path style=" stroke:none;fill-rule:nonzero;fill:rgb(34.117647%,39.607843%,100%);fill-opacity:1;" d="M 39.945312 63.554688 L 20.199219 71.152344 L 60.453125 124.589844 L 79.152344 115.601562 Z M 39.945312 63.554688 "/>
<path style=" stroke:none;fill-rule:nonzero;fill:rgb(24.705882%,34.509804%,83.529412%);fill-opacity:1;" d="M 60.453125 124.589844 L 60.453125 129.316406 L 20.242188 74.277344 L 20.242188 71.152344 Z M 60.453125 124.589844 "/>
<path style=" stroke:none;fill-rule:nonzero;fill:rgb(74.117647%,74.117647%,74.117647%);fill-opacity:1;" d="M 86.054688 19.328125 C 86.546875 17.417969 86.464844 15.089844 84.550781 14.601562 C 82.640625 14.109375 81.425781 16.210938 80.933594 18.125 L 67.144531 68.121094 C 67.152344 68.171875 68.710938 76.414062 68.710938 76.414062 C 68.710938 76.414062 74.046875 69.941406 74.074219 69.898438 Z M 86.054688 19.328125 "/>
<path style=" stroke:none;fill-rule:nonzero;fill:rgb(86.666667%,86.666667%,86.666667%);fill-opacity:1;" d="M 71.339844 57.988281 C 71.820312 53.980469 72.53125 50.015625 73.234375 46.042969 L 67.144531 68.121094 C 67.148438 68.132812 67.199219 68.40625 67.28125 68.847656 C 68.589844 68.953125 69.898438 69.078125 71.207031 69.222656 C 70.816406 65.484375 70.890625 61.753906 71.339844 57.988281 Z M 71.339844 57.988281 "/>
<path style=" stroke:none;fill-rule:nonzero;fill:rgb(74.117647%,74.117647%,74.117647%);fill-opacity:1;" d="M 80.667969 24.246094 L 76.183594 23.097656 L 74.019531 38.757812 L 74.683594 38.710938 L 77.363281 25.136719 L 80.222656 25 Z M 80.667969 24.246094 "/>
<path style=" stroke:none;fill-rule:nonzero;fill:rgb(34.117647%,39.607843%,100%);fill-opacity:1;" d="M 67.179688 68.054688 C 67.1875 68.101562 68.746094 76.34375 68.746094 76.34375 C 68.746094 76.34375 74.082031 69.871094 74.109375 69.828125 Z M 67.179688 68.054688 "/>
</g>
</svg>
