<?xml version="1.0" encoding="UTF-8"?>
<svg xmlns="http://www.w3.org/2000/svg" xmlns:xlink="http://www.w3.org/1999/xlink" width="101px" height="149px" viewBox="0 0 101 148" version="1.1">
<g id="surface1">
<path style=" stroke:none;fill-rule:nonzero;fill:rgb(81.960784%,81.960784%,81.960784%);fill-opacity:1;" d="M 80.769531 92.371094 C 80.769531 92.371094 91.460938 126.367188 83.976562 130.460938 C 76.496094 134.554688 30.351562 136.691406 24.472656 127.96875 C 18.59375 119.246094 20.734375 89.34375 24.296875 86.496094 C 27.859375 83.648438 78.453125 83.113281 80.769531 92.371094 Z M 80.769531 92.371094 "/>
<path style=" stroke:none;fill-rule:nonzero;fill:rgb(74.901961%,47.45098%,14.509804%);fill-opacity:1;" d="M 77.03125 68.519531 L 75.960938 92.902344 L 61.171875 83.292969 C 61.171875 83.292969 70.257812 62.46875 77.03125 68.519531 Z M 77.03125 68.519531 "/>
<path style=" stroke:none;fill-rule:nonzero;fill:rgb(74.901961%,47.45098%,14.509804%);fill-opacity:1;" d="M 39.082031 69.585938 L 38.015625 93.972656 L 23.226562 84.359375 C 23.226562 84.359375 32.3125 63.535156 39.082031 69.585938 Z M 39.082031 69.585938 "/>
<path style=" stroke:none;fill-rule:nonzero;fill:rgb(97.647059%,88.627451%,78.431373%);fill-opacity:1;" d="M 66.519531 77.242188 L 52.265625 100.023438 L 35.164062 76.882812 C 35.164062 76.882812 59.570312 70.296875 66.519531 77.242188 Z M 66.519531 77.242188 "/>
<path style=" stroke:none;fill-rule:nonzero;fill:rgb(100%,100%,100%);fill-opacity:1;" d="M 66.695312 77.953125 C 66.695312 77.953125 68.300781 85.070312 70.792969 88.097656 C 73.289062 91.125 53.335938 126.898438 53.335938 126.898438 L 31.957031 88.097656 C 31.957031 88.097656 36.054688 83.113281 35.164062 76.882812 C 34.679688 73.515625 45.851562 93.792969 51.375 93.082031 C 56.503906 92.421875 62.066406 80.265625 66.695312 77.953125 Z M 66.695312 77.953125 "/>
<path style=" stroke:none;fill-rule:nonzero;fill:rgb(77.647059%,77.647059%,77.647059%);fill-opacity:1;" d="M 51.375 93.082031 C 51.375 93.082031 59.925781 100.378906 60.460938 105.898438 C 61.171875 103.761719 57.609375 95.574219 51.375 93.082031 Z M 51.375 93.082031 "/>
<path style=" stroke:none;fill-rule:nonzero;fill:rgb(77.647059%,77.647059%,77.647059%);fill-opacity:1;" d="M 50.394531 93.082031 C 50.394531 93.082031 41.84375 100.378906 41.3125 105.898438 C 40.597656 103.761719 44.160156 95.574219 50.394531 93.082031 Z M 50.394531 93.082031 "/>
<path style=" stroke:none;fill-rule:nonzero;fill:rgb(91.764706%,80%,71.764706%);fill-opacity:1;" d="M 62.425781 82.253906 C 62.691406 81.917969 62.957031 81.578125 63.21875 81.242188 C 63.316406 81.121094 63.421875 81.046875 63.527344 81.007812 C 63.617188 80.90625 63.707031 80.808594 63.796875 80.707031 C 60.417969 81.5 49.800781 83.929688 46.671875 83.929688 C 49.535156 85.839844 56.613281 85.15625 60.429688 84.613281 C 61.085938 83.820312 61.753906 83.03125 62.425781 82.253906 Z M 62.425781 82.253906 "/>
<path style="fill-rule:nonzero;fill:rgb(97.647059%,88.627451%,78.431373%);fill-opacity:1;stroke-width:26.46;stroke-linecap:butt;stroke-linejoin:miter;stroke:rgb(44.705882%,36.470588%,26.666667%);stroke-opacity:1;stroke-miterlimit:22.9256;" d="M 12182.278775 7649.598818 C 12182.278775 8929.951436 11699.605507 10159.206081 10842.164295 11064.453125 C 9984.723082 11969.700169 8820.389851 12478.937922 7607.905322 12478.937922 C 6394.840656 12478.937922 5230.507426 11969.700169 4373.066213 11064.453125 C 3515.625 10159.206081 3033.531869 8929.951436 3033.531869 7649.598818 C 3033.531869 6369.246199 3515.625 5139.991554 4373.066213 4234.74451 C 5230.507426 3329.497466 6394.840656 2820.259713 7607.905322 2820.259713 C 8820.389851 2820.259713 9984.723082 3329.497466 10842.164295 4234.74451 C 11699.605507 5139.991554 12182.278775 6369.246199 12182.278775 7649.598818 Z M 12182.278775 7649.598818 " transform="matrix(0.00673333,0,0,0.00672727,0,0)"/>
<path style=" stroke:none;fill-rule:nonzero;fill:rgb(91.764706%,80%,71.764706%);fill-opacity:1;" d="M 59.230469 40.148438 C 59.230469 40.148438 69.117188 47.089844 75.53125 50.027344 C 76.066406 53.761719 75.261719 66.84375 74.460938 72.984375 C 78.203125 65.777344 77.933594 45.753906 77.402344 44.6875 C 76.867188 43.617188 66.175781 43.617188 59.230469 40.148438 Z M 59.230469 40.148438 "/>
<path style=" stroke:none;fill-rule:nonzero;fill:rgb(91.764706%,80%,71.764706%);fill-opacity:1;" d="M 50.144531 34.542969 C 50.144531 34.542969 38.65625 42.550781 26.09375 45.753906 C 25.828125 48.957031 27.699219 59.101562 29.570312 70.582031 C 24.894531 63.941406 22.101562 42.84375 22.488281 41.714844 C 22.875 40.585938 42.929688 35.074219 50.144531 34.542969 Z M 50.144531 34.542969 "/>
<path style=" stroke:none;fill-rule:nonzero;fill:rgb(32.156863%,41.568627%,100%);fill-opacity:1;" d="M 92.648438 106.132812 C 92.648438 106.132812 92.648438 98.183594 86.113281 94.625 C 84.289062 93.628906 82.550781 93.171875 77.347656 89.902344 C 72.984375 87.574219 69.296875 85.621094 69.296875 85.621094 L 51.257812 116.21875 L 33.441406 85.621094 C 33.441406 85.621094 18.109375 93.8125 16.621094 94.625 C 10.089844 98.183594 10.089844 106.132812 10.089844 106.132812 C 10.089844 106.132812 9.851562 131.765625 10.089844 134.375 C 27.128906 143.765625 45.691406 144.183594 50.246094 144.132812 L 52.507812 144.132812 C 57.09375 144.183594 75.628906 143.753906 92.648438 134.375 C 92.886719 131.765625 92.648438 106.132812 92.648438 106.132812 Z M 92.648438 106.132812 "/>
<path style=" stroke:none;fill-rule:nonzero;fill:rgb(32.156863%,41.568627%,100%);fill-opacity:1;" d="M 40.242188 117.453125 C 40.242188 118.574219 39.792969 119.648438 39 120.441406 C 38.207031 121.234375 37.132812 121.679688 36.007812 121.679688 C 34.886719 121.679688 33.8125 121.234375 33.019531 120.441406 C 32.226562 119.648438 31.777344 118.574219 31.777344 117.453125 C 31.777344 116.710938 31.972656 115.980469 32.34375 115.339844 C 32.714844 114.695312 33.25 114.160156 33.894531 113.789062 C 34.539062 113.417969 35.265625 113.222656 36.007812 113.222656 C 36.753906 113.222656 37.480469 113.417969 38.125 113.789062 C 38.769531 114.160156 39.300781 114.695312 39.675781 115.339844 C 40.046875 115.980469 40.242188 116.710938 40.242188 117.453125 Z M 40.242188 117.453125 "/>
<path style=" stroke:none;fill-rule:nonzero;fill:rgb(24.313725%,34.509804%,83.921569%);fill-opacity:1;" d="M 20.464844 98.554688 C 20.464844 98.554688 15.121094 100.734375 11.914062 99.488281 C 12.714844 97.398438 15.878906 94.949219 15.878906 94.949219 L 19.398438 94.90625 Z M 20.464844 98.554688 "/>
<path style=" stroke:none;fill-rule:nonzero;fill:rgb(24.313725%,34.509804%,83.921569%);fill-opacity:1;" d="M 80.414062 99.488281 C 80.414062 99.488281 87.71875 101.089844 91.015625 99.84375 C 86.828125 91.925781 80.769531 93.703125 80.769531 93.703125 Z M 80.414062 99.488281 "/>
<path style=" stroke:none;fill-rule:nonzero;fill:rgb(24.313725%,34.509804%,83.921569%);fill-opacity:1;" d="M 69.367188 85.605469 C 69.367188 85.605469 73.050781 95.277344 77.503906 98.304688 C 78.21875 95.277344 78.8125 89.34375 78.8125 89.34375 C 78.8125 89.34375 72.753906 87.917969 69.367188 85.605469 Z M 69.367188 85.605469 "/>
<path style=" stroke:none;fill-rule:nonzero;fill:rgb(24.313725%,34.509804%,83.921569%);fill-opacity:1;" d="M 33.472656 85.515625 L 35.875 89.789062 C 35.875 89.789062 29.015625 95.839844 22.960938 97.796875 C 22.738281 96.597656 20.910156 92.457031 20.910156 92.457031 C 20.910156 92.457031 28.660156 87.917969 33.472656 85.515625 Z M 33.472656 85.515625 "/>
<path style=" stroke:none;fill-rule:nonzero;fill:rgb(24.313725%,34.509804%,83.921569%);fill-opacity:1;" d="M 41.042969 119.425781 C 41.042969 119.425781 39.882812 128.058594 32.757812 128.144531 C 37.925781 129.570312 43.535156 126.367188 41.042969 119.425781 Z M 41.042969 119.425781 "/>
<path style=" stroke:none;fill-rule:nonzero;fill:rgb(24.313725%,34.509804%,83.921569%);fill-opacity:1;" d="M 80.828125 95.15625 C 80.828125 95.15625 76.511719 112.273438 73.175781 118.3125 C 73.761719 118.890625 76.070312 123.664062 75.839844 127.257812 C 77.035156 128 76.433594 131.765625 76.792969 132.476562 C 79.046875 131.171875 78.484375 127.671875 76.761719 126.898438 C 76.523438 125.121094 76.792969 121.265625 74.652344 118.535156 C 75.367188 117.109375 81.484375 105.125 80.828125 95.15625 Z M 80.828125 95.15625 "/>
<path style=" stroke:none;fill-rule:nonzero;fill:rgb(24.313725%,34.509804%,83.921569%);fill-opacity:1;" d="M 70.972656 119.128906 C 70.972656 119.128906 63.132812 119.363281 62.777344 122.390625 C 63.023438 123.042969 62.390625 125.832031 61.441406 126.898438 C 62.746094 126.960938 64.527344 124.824219 64.292969 123.519531 C 64.558594 122.183594 65.648438 120.390625 70.972656 119.128906 Z M 70.972656 119.128906 "/>
<path style=" stroke:none;fill-rule:nonzero;fill:rgb(24.313725%,34.509804%,83.921569%);fill-opacity:1;" d="M 23.496094 96.464844 C 23.496094 96.464844 28.214844 110.613281 32.667969 114.171875 C 32.402344 115.152344 26.433594 114.976562 21.890625 96.195312 C 22.070312 95.664062 23.136719 93.792969 23.496094 96.464844 Z M 23.496094 96.464844 "/>
<path style=" stroke:none;fill-rule:nonzero;fill:rgb(67.843137%,67.843137%,67.843137%);fill-opacity:1;" d="M 35.445312 115.996094 C 35.445312 115.996094 42.269531 118.039062 37.195312 124.492188 C 35.054688 126.945312 29.433594 127.234375 29.128906 122.636719 C 29.109375 118.125 30.453125 115.28125 35.445312 115.996094 Z M 35.445312 115.996094 "/>
<path style=" stroke:none;fill-rule:nonzero;fill:rgb(84.705882%,84.705882%,84.705882%);fill-opacity:1;" d="M 78.195312 87.464844 C 78.195312 87.464844 77.648438 112.449219 69.960938 116.761719 C 72.832031 119.304688 73.089844 118.363281 73.089844 118.363281 C 73.089844 118.363281 80.464844 111.703125 81.167969 87.421875 C 79.261719 86.347656 78.195312 87.464844 78.195312 87.464844 Z M 78.195312 87.464844 "/>
<path style=" stroke:none;fill-rule:nonzero;fill:rgb(84.705882%,84.705882%,84.705882%);fill-opacity:1;" d="M 72.808594 117.753906 C 72.808594 117.753906 76.542969 120.839844 75.828125 127.6875 C 75.710938 128.070312 72.941406 129.199219 73.023438 127.457031 C 73.015625 125.613281 73.804688 123.328125 70.527344 118.808594 C 71.347656 117.878906 71.878906 116.933594 72.808594 117.753906 Z M 72.808594 117.753906 "/>
<path style=" stroke:none;fill-rule:nonzero;fill:rgb(84.705882%,84.705882%,84.705882%);fill-opacity:1;" d="M 70.714844 116.703125 C 70.714844 116.703125 65.953125 115.800781 61.128906 120.71875 C 60.910156 121.050781 61.808594 123.902344 63.097656 122.726562 C 64.523438 121.558594 65.785156 119.492188 71.355469 119.128906 C 71.550781 117.90625 71.9375 116.894531 70.714844 116.703125 Z M 70.714844 116.703125 "/>
<path style=" stroke:none;fill-rule:nonzero;fill:rgb(84.705882%,84.705882%,84.705882%);fill-opacity:1;" d="M 63.386719 124.023438 C 63.386719 124.921875 63.027344 125.785156 62.390625 126.421875 C 61.753906 127.054688 60.890625 127.414062 59.992188 127.414062 C 59.09375 127.414062 58.230469 127.054688 57.59375 126.421875 C 56.957031 125.785156 56.601562 124.921875 56.601562 124.023438 C 56.601562 123.125 56.957031 122.261719 57.59375 121.628906 C 58.230469 120.992188 59.09375 120.636719 59.992188 120.636719 C 60.890625 120.636719 61.753906 120.992188 62.390625 121.628906 C 63.027344 122.261719 63.386719 123.125 63.386719 124.023438 Z M 63.386719 124.023438 "/>
<path style=" stroke:none;fill-rule:nonzero;fill:rgb(84.705882%,84.705882%,84.705882%);fill-opacity:1;" d="M 77.648438 130.132812 C 77.648438 131.03125 77.289062 131.894531 76.652344 132.53125 C 76.015625 133.164062 75.152344 133.523438 74.253906 133.523438 C 73.355469 133.523438 72.492188 133.164062 71.855469 132.53125 C 71.21875 131.894531 70.863281 131.03125 70.863281 130.132812 C 70.863281 129.234375 71.21875 128.375 71.855469 127.738281 C 72.492188 127.101562 73.355469 126.746094 74.253906 126.746094 C 75.152344 126.746094 76.015625 127.101562 76.652344 127.738281 C 77.289062 128.375 77.648438 129.234375 77.648438 130.132812 Z M 77.648438 130.132812 "/>
<path style=" stroke:none;fill-rule:nonzero;fill:rgb(84.705882%,84.705882%,84.705882%);fill-opacity:1;" d="M 21.894531 93.644531 C 21.894531 93.644531 23.765625 105.214844 32.226562 114.738281 C 31.335938 115.71875 30.460938 116.886719 29.375 115.628906 C 28.289062 114.367188 23.050781 108.152344 19.578125 95.425781 C 21.179688 94.179688 21.894531 93.644531 21.894531 93.644531 Z M 21.894531 93.644531 "/>
<path style=" stroke:none;fill-rule:nonzero;fill:rgb(84.705882%,84.705882%,84.705882%);fill-opacity:1;" d="M 34.097656 113.847656 C 30.113281 113.847656 26.882812 117.074219 26.882812 121.058594 C 26.882812 125.039062 30.113281 128.265625 34.097656 128.265625 C 38.082031 128.265625 41.3125 125.039062 41.3125 121.058594 C 41.3125 117.074219 38.082031 113.847656 34.097656 113.847656 Z M 34.140625 125.328125 C 31.804688 125.328125 29.910156 123.4375 29.910156 121.101562 C 29.910156 118.765625 31.804688 116.875 34.140625 116.875 C 36.476562 116.875 38.371094 118.765625 38.371094 121.101562 C 38.371094 123.4375 36.476562 125.328125 34.140625 125.328125 Z M 34.140625 125.328125 "/>
<path style=" stroke:none;fill-rule:nonzero;fill:rgb(60%,60%,60%);fill-opacity:1;" d="M 22.335938 95.574219 L 22.960938 97.84375 L 20.464844 98.511719 L 19.886719 96.597656 Z M 22.335938 95.574219 "/>
<path style=" stroke:none;fill-rule:nonzero;fill:rgb(100%,100%,100%);fill-opacity:1;" d="M 25.886719 108.164062 C 25.261719 107.351562 24.632812 106.539062 24.078125 105.667969 C 23.71875 105.109375 23.375 104.539062 23.039062 103.964844 C 23.011719 104.011719 22.992188 104.058594 22.980469 104.113281 C 23.039062 104.332031 23.105469 104.546875 23.171875 104.757812 C 23.824219 106.179688 24.492188 107.597656 25.1875 108.992188 C 25.5625 109.609375 25.957031 110.207031 26.363281 110.789062 C 26.5625 111.074219 26.765625 111.355469 26.96875 111.636719 C 27.699219 112.519531 28.46875 113.363281 29.261719 114.1875 C 29.257812 114.101562 29.234375 114.007812 29.175781 113.910156 C 28.058594 112.011719 26.882812 110.128906 25.886719 108.164062 Z M 25.886719 108.164062 "/>
<path style=" stroke:none;fill-rule:nonzero;fill:rgb(100%,100%,100%);fill-opacity:1;" d="M 77.671875 106.652344 C 76.53125 110.289062 74.910156 113.804688 72.695312 116.90625 C 72.9375 117.027344 73.242188 117.007812 73.445312 116.71875 C 75.46875 113.859375 77.101562 110.640625 77.890625 107.210938 C 77.949219 106.945312 77.84375 106.757812 77.671875 106.652344 Z M 77.671875 106.652344 "/>
<path style=" stroke:none;fill-rule:nonzero;fill:rgb(100%,100%,100%);fill-opacity:1;" d="M 57.945312 123.535156 C 57.816406 123.617188 57.71875 123.734375 57.691406 123.886719 C 57.566406 124.648438 57.777344 125.292969 58.230469 125.910156 C 58.429688 126.183594 58.765625 126.316406 59.082031 126.132812 C 59.273438 126.023438 59.402344 125.785156 59.394531 125.558594 C 58.730469 124.996094 58.191406 124.34375 57.945312 123.535156 Z M 57.945312 123.535156 "/>
<path style=" stroke:none;fill-rule:nonzero;fill:rgb(100%,100%,100%);fill-opacity:1;" d="M 72.070312 130.011719 C 71.914062 130.105469 71.800781 130.273438 71.804688 130.519531 C 71.8125 131.175781 72.003906 131.78125 72.460938 132.265625 C 72.65625 132.46875 72.890625 132.492188 73.089844 132.410156 C 72.753906 131.675781 72.179688 130.890625 72.070312 130.011719 Z M 72.070312 130.011719 "/>
<path style=" stroke:none;fill-rule:nonzero;fill:rgb(60%,60%,60%);fill-opacity:1;" d="M 80.148438 99.398438 C 80.148438 99.398438 78.632812 98.894531 77.207031 98.242188 C 77.445312 97.175781 77.832031 93.378906 77.832031 93.378906 L 80.828125 94.386719 Z M 80.148438 99.398438 "/>
<path style=" stroke:none;fill-rule:nonzero;fill:rgb(67.843137%,67.843137%,67.843137%);fill-opacity:1;" d="M 76.527344 128.988281 C 76.128906 128.292969 75.050781 128.917969 75.453125 129.617188 C 75.871094 130.34375 75.578125 131.132812 74.84375 131.496094 C 74.121094 131.847656 74.753906 132.921875 75.472656 132.570312 C 76.820312 131.910156 77.265625 130.269531 76.527344 128.988281 Z M 76.527344 128.988281 "/>
<path style=" stroke:none;fill-rule:nonzero;fill:rgb(67.843137%,67.843137%,67.843137%);fill-opacity:1;" d="M 62.457031 123.707031 C 62.410156 123.371094 61.988281 123.191406 61.691406 123.273438 C 61.332031 123.371094 61.207031 123.703125 61.253906 124.039062 C 61.324219 124.535156 61.46875 125.25 60.859375 125.410156 C 60.082031 125.613281 60.414062 126.8125 61.191406 126.609375 C 62.59375 126.246094 62.625 124.902344 62.457031 123.707031 Z M 62.457031 123.707031 "/>
<path style=" stroke:none;fill-rule:nonzero;fill:rgb(60%,60%,60%);fill-opacity:1;" d="M 36.132812 118.203125 C 35.460938 117.765625 34.71875 118.769531 35.394531 119.203125 C 36.847656 120.144531 36.488281 122.71875 35.078125 123.5625 C 34.398438 123.96875 34.898438 125.113281 35.585938 124.699219 C 37.730469 123.414062 38.457031 119.703125 36.132812 118.203125 Z M 36.132812 118.203125 "/>
<path style=" stroke:none;fill-rule:nonzero;fill:rgb(100%,100%,100%);fill-opacity:1;" d="M 27.882812 121.589844 C 27.796875 121.6875 27.746094 121.824219 27.769531 122.003906 C 28.089844 124.59375 29.660156 127.175781 32.550781 127.136719 C 32.980469 127.132812 33.179688 126.769531 33.148438 126.4375 C 30.625 126.351562 28.371094 124.039062 27.882812 121.589844 Z M 27.882812 121.589844 "/>
<path style=" stroke:none;fill-rule:nonzero;fill:rgb(100%,100%,100%);fill-opacity:1;" d="M 38.722656 117.027344 C 38.167969 116.472656 37.601562 115.917969 36.933594 115.503906 C 36.246094 115.078125 35.621094 116.15625 36.304688 116.582031 C 36.882812 116.9375 37.363281 117.429688 37.839844 117.90625 C 38.410156 118.476562 39.292969 117.59375 38.722656 117.027344 Z M 38.722656 117.027344 "/>
<path style=" stroke:none;fill-rule:nonzero;fill:rgb(60%,60%,60%);fill-opacity:1;" d="M 73.246094 118.753906 C 72.875 118.3125 72.25 118.945312 72.617188 119.382812 C 74.164062 121.21875 74.394531 123.527344 74.503906 125.832031 C 74.53125 126.402344 75.421875 126.40625 75.394531 125.832031 C 75.273438 123.265625 74.957031 120.785156 73.246094 118.753906 Z M 73.246094 118.753906 "/>
<path style=" stroke:none;fill-rule:nonzero;fill:rgb(60%,60%,60%);fill-opacity:1;" d="M 68.773438 118.164062 C 68.160156 118.296875 67.578125 118.527344 66.992188 118.757812 C 66.46875 118.96875 66.695312 119.828125 67.230469 119.617188 C 67.8125 119.382812 68.398438 119.15625 69.011719 119.023438 C 69.574219 118.902344 69.335938 118.046875 68.773438 118.164062 Z M 68.773438 118.164062 "/>
<path style=" stroke:none;fill-rule:nonzero;fill:rgb(60%,60%,60%);fill-opacity:1;" d="M 38.222656 124.421875 C 37.652344 125.195312 36.855469 125.726562 36.007812 126.160156 C 35.496094 126.421875 35.945312 127.1875 36.457031 126.929688 C 37.453125 126.421875 38.324219 125.773438 38.992188 124.871094 C 39.335938 124.40625 38.5625 123.964844 38.222656 124.421875 Z M 38.222656 124.421875 "/>
<path style=" stroke:none;fill-rule:nonzero;fill:rgb(24.313725%,34.509804%,83.921569%);fill-opacity:1;" d="M 70.351562 104.660156 C 70.074219 103.679688 68.980469 103.007812 68.210938 102.441406 C 66.664062 101.289062 63.648438 99.019531 62.152344 97.796875 L 61.351562 99.105469 C 62.464844 99.988281 69.351562 103.582031 69.835938 104.804688 C 70.382812 106.1875 68.40625 107.84375 67.597656 108.730469 C 66.511719 109.925781 65.363281 111.070312 64.210938 112.199219 C 59.765625 116.554688 54.613281 120.953125 52.035156 126.765625 C 51.898438 127.078125 52.394531 128.28125 52.53125 127.96875 C 55.339844 121.636719 61.101562 116.089844 65.878906 111.296875 C 67.09375 110.082031 68.269531 108.824219 69.378906 107.511719 C 70.046875 106.722656 70.652344 105.71875 70.351562 104.660156 Z M 70.351562 104.660156 "/>
<path style=" stroke:none;fill-rule:nonzero;fill:rgb(24.313725%,34.509804%,83.921569%);fill-opacity:1;" d="M 41.21875 99.089844 C 41.21875 99.089844 36.945312 103.640625 35.996094 104.769531 C 35.042969 105.898438 33.441406 107.378906 37.003906 110.464844 C 40.566406 113.550781 50.128906 121.382812 52.265625 127.195312 C 52.980469 128.679688 54.582031 138.527344 54.402344 144.105469 C 53.277344 144.164062 52.507812 144.132812 52.507812 144.132812 C 52.507812 144.132812 53.574219 132.953125 51.554688 127.554688 C 51.199219 126.898438 48.882812 121.085938 37.0625 111.058594 C 36.292969 110.40625 32.789062 107.972656 34.808594 105.304688 C 35.757812 104 40.285156 97.488281 40.285156 97.488281 Z M 41.21875 99.089844 "/>
<path style=" stroke:none;fill-rule:nonzero;fill:rgb(24.313725%,34.509804%,83.921569%);fill-opacity:1;" d="M 36.484375 102.878906 C 34.832031 103.234375 32.78125 102.835938 32.175781 102.558594 C 31.90625 101.902344 30.84375 98.605469 30.589844 96.164062 C 30.433594 94.664062 30.304688 93.164062 30.261719 91.65625 C 30.242188 90.980469 30.074219 89.710938 30.515625 89.128906 C 30.792969 88.761719 30.210938 88.367188 29.9375 88.730469 C 29.5 89.3125 29.5625 90.304688 29.558594 90.988281 C 29.546875 92.488281 29.6875 93.996094 29.824219 95.488281 C 30.089844 98.308594 30.707031 100.710938 31.03125 103.527344 C 31.046875 103.671875 34.820312 103.96875 36.625 103.582031 C 37.066406 103.484375 36.925781 102.78125 36.484375 102.878906 Z M 36.484375 102.878906 "/>
<path style=" stroke:none;fill-rule:nonzero;fill:rgb(24.313725%,34.509804%,83.921569%);fill-opacity:1;" d="M 73.859375 88.835938 C 73.617188 88.664062 73.378906 88.488281 73.152344 88.304688 C 73.550781 92.027344 72.398438 95.15625 73.136719 98.84375 C 70.785156 99.773438 69.117188 100.691406 66.613281 100.9375 C 66.191406 100.976562 66.292969 101.558594 66.710938 101.519531 C 69.363281 101.257812 72.058594 100.984375 74.53125 99.953125 C 74.660156 99.898438 74.746094 99.757812 74.71875 99.632812 C 73.96875 96.085938 74.175781 92.433594 73.859375 88.835938 Z M 73.859375 88.835938 "/>
<path style=" stroke:none;fill-rule:nonzero;fill:rgb(91.764706%,61.960784%,22.352941%);fill-opacity:1;" d="M 48.167969 31.316406 C 48.167969 31.316406 59.703125 43.632812 76.875 46.851562 C 78.164062 49.210938 76.230469 64.4375 73.226562 76.230469 C 71.9375 81.589844 69.578125 98.960938 90.183594 95.53125 C 86.105469 93.386719 82.242188 88.023438 85.246094 76.015625 C 88.25 64.007812 90.183594 50.925781 83.3125 38.703125 C 73.871094 30.550781 75.214844 21.023438 48.167969 31.316406 Z M 48.167969 31.316406 "/>
<path style=" stroke:none;fill-rule:nonzero;fill:rgb(91.764706%,61.960784%,22.352941%);fill-opacity:1;" d="M 52.621094 32.921875 C 52.621094 32.921875 38.453125 42.132812 23.644531 44.0625 C 22.355469 48.136719 36.589844 83.945312 28.496094 92.964844 C 25.898438 95.859375 22.421875 96.980469 17.847656 96.386719 C 13.507812 95.828125 10.121094 91.457031 9.261719 90.382812 C 12.054688 91.242188 16.988281 92.3125 18.921875 88.667969 C 21.996094 82.867188 13.984375 46.851562 18.921875 36.984375 C 23.859375 27.121094 49.1875 19.195312 52.621094 32.921875 Z M 52.621094 32.921875 "/>
<path style=" stroke:none;fill-rule:nonzero;fill:rgb(74.901961%,47.45098%,14.509804%);fill-opacity:1;" d="M 86.484375 46.289062 C 86.484375 46.289062 80.054688 39.0625 51.195312 33.988281 C 60.015625 31.851562 81.410156 27.867188 86.484375 46.289062 Z M 86.484375 46.289062 "/>
<path style=" stroke:none;fill-rule:nonzero;fill:rgb(74.901961%,47.45098%,14.509804%);fill-opacity:1;" d="M 17.347656 43.066406 C 17.347656 43.066406 21.625 37.015625 50.855469 33.988281 C 42.039062 31.851562 20.199219 21.351562 17.347656 43.066406 Z M 17.347656 43.066406 "/>
<path style=" stroke:none;fill-rule:nonzero;fill:rgb(69.803922%,84.705882%,81.568627%);fill-opacity:1;" d="M 52.683594 97.589844 C 52.683594 98.015625 52.511719 98.421875 52.210938 98.722656 C 51.910156 99.023438 51.503906 99.191406 51.078125 99.191406 C 50.652344 99.191406 50.246094 99.023438 49.945312 98.722656 C 49.644531 98.421875 49.476562 98.015625 49.476562 97.589844 C 49.476562 97.167969 49.644531 96.757812 49.945312 96.457031 C 50.246094 96.15625 50.652344 95.988281 51.078125 95.988281 C 51.503906 95.988281 51.910156 96.15625 52.210938 96.457031 C 52.511719 96.757812 52.683594 97.167969 52.683594 97.589844 Z M 52.683594 97.589844 "/>
<path style=" stroke:none;fill-rule:nonzero;fill:rgb(69.803922%,84.705882%,81.568627%);fill-opacity:1;" d="M 52.859375 105.007812 C 52.859375 105.289062 52.785156 105.566406 52.644531 105.808594 C 52.503906 106.050781 52.300781 106.253906 52.058594 106.394531 C 51.8125 106.535156 51.539062 106.609375 51.257812 106.609375 C 50.976562 106.609375 50.699219 106.535156 50.453125 106.394531 C 50.210938 106.253906 50.007812 106.050781 49.867188 105.808594 C 49.726562 105.566406 49.652344 105.289062 49.652344 105.007812 C 49.652344 104.582031 49.820312 104.175781 50.121094 103.875 C 50.421875 103.574219 50.832031 103.40625 51.257812 103.40625 C 51.539062 103.40625 51.8125 103.480469 52.058594 103.621094 C 52.300781 103.761719 52.503906 103.960938 52.644531 104.207031 C 52.785156 104.449219 52.859375 104.726562 52.859375 105.007812 Z M 52.859375 105.007812 "/>
<path style=" stroke:none;fill-rule:nonzero;fill:rgb(60.784314%,60.784314%,60.784314%);fill-opacity:1;" d="M 52.445312 97.351562 C 52.445312 97.632812 52.371094 97.910156 52.230469 98.15625 C 52.089844 98.398438 51.886719 98.601562 51.640625 98.742188 C 51.398438 98.882812 51.121094 98.957031 50.839844 98.957031 C 50.414062 98.957031 50.007812 98.785156 49.707031 98.484375 C 49.40625 98.1875 49.238281 97.777344 49.238281 97.351562 C 49.238281 96.929688 49.40625 96.519531 49.707031 96.222656 C 50.007812 95.921875 50.414062 95.75 50.839844 95.75 C 51.121094 95.75 51.398438 95.824219 51.640625 95.964844 C 51.886719 96.105469 52.089844 96.308594 52.230469 96.550781 C 52.371094 96.796875 52.445312 97.074219 52.445312 97.351562 Z M 52.445312 97.351562 "/>
<path style=" stroke:none;fill-rule:nonzero;fill:rgb(60.784314%,60.784314%,60.784314%);fill-opacity:1;" d="M 52.621094 104.828125 C 52.621094 105.109375 52.546875 105.386719 52.40625 105.628906 C 52.265625 105.875 52.0625 106.074219 51.820312 106.214844 C 51.578125 106.355469 51.300781 106.429688 51.019531 106.429688 C 50.59375 106.429688 50.1875 106.261719 49.886719 105.960938 C 49.585938 105.660156 49.414062 105.253906 49.414062 104.828125 C 49.414062 104.40625 49.585938 103.996094 49.886719 103.695312 C 50.1875 103.394531 50.59375 103.226562 51.019531 103.226562 C 51.300781 103.226562 51.578125 103.300781 51.820312 103.441406 C 52.0625 103.582031 52.265625 103.785156 52.40625 104.027344 C 52.546875 104.273438 52.621094 104.546875 52.621094 104.828125 Z M 52.621094 104.828125 "/>
<path style=" stroke:none;fill-rule:nonzero;fill:rgb(32.156863%,41.568627%,100%);fill-opacity:1;" d="M 84.800781 40.515625 C 84.800781 40.515625 60.929688 27.699219 17.460938 38.734375 C 17.460938 31.257812 17.460938 12.035156 17.460938 12.035156 C 17.460938 12.035156 49.171875 -6.121094 84.089844 12.035156 C 84.800781 24.496094 84.800781 40.515625 84.800781 40.515625 Z M 84.800781 40.515625 "/>
<path style=" stroke:none;fill-rule:nonzero;fill:rgb(100%,100%,100%);fill-opacity:1;" d="M 42.0625 21.753906 C 42.0625 23.230469 43.257812 24.425781 44.734375 24.425781 L 57.828125 24.425781 C 59.304688 24.425781 60.5 23.230469 60.5 21.753906 C 60.5 20.28125 59.304688 19.085938 57.828125 19.085938 L 44.734375 19.085938 C 43.257812 19.085938 42.0625 20.28125 42.0625 21.753906 Z M 42.0625 21.753906 "/>
<path style=" stroke:none;fill-rule:nonzero;fill:rgb(100%,100%,100%);fill-opacity:1;" d="M 51.546875 13.078125 C 50.070312 13.078125 48.875 14.273438 48.875 15.746094 L 48.875 28.828125 C 48.875 30.304688 50.070312 31.5 51.546875 31.5 C 53.023438 31.5 54.21875 30.304688 54.21875 28.828125 L 54.21875 15.746094 C 54.21875 14.273438 53.023438 13.078125 51.546875 13.078125 Z M 51.546875 13.078125 "/>
<path style=" stroke:none;fill-rule:nonzero;fill:rgb(69.803922%,84.705882%,81.568627%);fill-opacity:1;" d="M 53.039062 112.71875 C 53.039062 113.144531 52.867188 113.550781 52.570312 113.851562 C 52.269531 114.152344 51.859375 114.320312 51.433594 114.320312 C 51.007812 114.320312 50.601562 114.152344 50.300781 113.851562 C 50 113.550781 49.832031 113.144531 49.832031 112.71875 C 49.832031 112.296875 50 111.886719 50.300781 111.585938 C 50.601562 111.289062 51.007812 111.117188 51.433594 111.117188 C 51.859375 111.117188 52.269531 111.289062 52.570312 111.585938 C 52.867188 111.886719 53.039062 112.296875 53.039062 112.71875 Z M 53.039062 112.71875 "/>
<path style=" stroke:none;fill-rule:nonzero;fill:rgb(60.784314%,60.784314%,60.784314%);fill-opacity:1;" d="M 52.800781 112.484375 C 52.800781 112.90625 52.632812 113.316406 52.332031 113.617188 C 52.03125 113.914062 51.621094 114.085938 51.195312 114.085938 C 50.773438 114.085938 50.363281 113.914062 50.0625 113.617188 C 49.761719 113.316406 49.59375 112.90625 49.59375 112.484375 C 49.59375 112.058594 49.761719 111.652344 50.0625 111.351562 C 50.363281 111.050781 50.773438 110.882812 51.195312 110.882812 C 51.621094 110.882812 52.03125 111.050781 52.332031 111.351562 C 52.632812 111.652344 52.800781 112.058594 52.800781 112.484375 Z M 52.800781 112.484375 "/>
<path style=" stroke:none;fill-rule:nonzero;fill:rgb(0%,0%,0%);fill-opacity:1;" d="M 37.660156 53.03125 C 37.636719 52.535156 37.832031 52.050781 38.199219 51.683594 C 38.566406 51.316406 39.078125 51.09375 39.621094 51.070312 C 40.164062 51.046875 40.691406 51.21875 41.09375 51.550781 C 41.492188 51.882812 41.730469 52.347656 41.753906 52.84375 C 41.773438 53.339844 41.582031 53.824219 41.214844 54.191406 C 40.847656 54.558594 40.332031 54.777344 39.792969 54.804688 C 39.25 54.828125 38.71875 54.65625 38.320312 54.324219 C 37.917969 53.992188 37.683594 53.523438 37.660156 53.03125 Z M 37.660156 53.03125 "/>
<path style=" stroke:none;fill-rule:nonzero;fill:rgb(0%,0%,0%);fill-opacity:1;" d="M 62.957031 52.765625 C 62.957031 53.09375 62.859375 53.417969 62.679688 53.699219 C 62.5 53.984375 62.242188 54.222656 61.929688 54.386719 C 61.621094 54.550781 61.265625 54.636719 60.90625 54.636719 C 60.546875 54.636719 60.195312 54.550781 59.882812 54.386719 C 59.570312 54.222656 59.3125 53.984375 59.132812 53.699219 C 58.953125 53.417969 58.859375 53.09375 58.859375 52.765625 C 58.859375 52.4375 58.953125 52.117188 59.132812 51.832031 C 59.3125 51.546875 59.570312 51.3125 59.882812 51.148438 C 60.195312 50.984375 60.546875 50.898438 60.90625 50.898438 C 61.265625 50.898438 61.621094 50.984375 61.929688 51.148438 C 62.242188 51.3125 62.5 51.546875 62.679688 51.832031 C 62.859375 52.117188 62.957031 52.4375 62.957031 52.765625 Z M 62.957031 52.765625 "/>
<path style=" stroke:none;fill-rule:nonzero;fill:rgb(44.705882%,36.470588%,26.666667%);fill-opacity:1;" d="M 49.398438 64.136719 C 48.59375 64.578125 47.808594 63.910156 47.433594 63.226562 C 47.070312 62.570312 47.414062 61.824219 47.753906 61.25 C 48.347656 60.246094 48.925781 59.398438 48.96875 58.195312 C 48.984375 57.851562 48.449219 57.851562 48.4375 58.195312 C 48.394531 59.28125 47.847656 60.089844 47.292969 60.980469 C 46.960938 61.511719 46.660156 62.191406 46.769531 62.832031 C 46.984375 64.113281 48.386719 65.296875 49.667969 64.597656 C 49.972656 64.429688 49.703125 63.96875 49.398438 64.136719 Z M 49.398438 64.136719 "/>
<path style=" stroke:none;fill-rule:nonzero;fill:rgb(44.705882%,36.470588%,26.666667%);fill-opacity:1;" d="M 61.007812 69.753906 C 60.894531 69.664062 60.765625 69.675781 60.671875 69.738281 C 60.625 69.71875 60.578125 69.699219 60.53125 69.679688 C 60.257812 69.5625 59.984375 69.425781 59.699219 69.328125 C 59.375 69.214844 59.234375 69.730469 59.558594 69.84375 C 59.9375 69.972656 60.292969 70.167969 60.667969 70.308594 C 60.820312 70.363281 61.011719 70.417969 61.144531 70.285156 C 61.335938 70.097656 61.164062 69.882812 61.007812 69.753906 Z M 61.007812 69.753906 "/>
<path style=" stroke:none;fill-rule:nonzero;fill:rgb(44.705882%,36.470588%,26.666667%);fill-opacity:1;" d="M 59.734375 69.476562 C 57.199219 71.289062 53.660156 71.554688 50.644531 71.597656 C 47.195312 71.648438 43.898438 70.976562 40.714844 69.671875 C 40.769531 69.46875 40.8125 69.265625 40.882812 69.0625 C 40.992188 68.765625 40.554688 68.617188 40.394531 68.859375 C 40.140625 69.25 39.710938 69.457031 39.367188 69.753906 C 39.109375 69.980469 39.488281 70.355469 39.746094 70.132812 C 39.871094 70.023438 39.996094 69.929688 40.121094 69.839844 C 40.125 69.949219 40.21875 70.039062 40.316406 70.082031 C 43.71875 71.511719 47.207031 72.179688 50.886719 72.128906 C 53.910156 72.085938 57.46875 71.746094 60 69.9375 C 60.28125 69.738281 60.011719 69.273438 59.734375 69.476562 Z M 59.734375 69.476562 "/>
<path style=" stroke:none;fill-rule:nonzero;fill:rgb(100%,100%,100%);fill-opacity:1;" d="M 60.820312 51.667969 C 60.804688 51.644531 60.789062 51.621094 60.769531 51.597656 C 60.675781 51.503906 60.5 51.492188 60.402344 51.589844 C 60.355469 51.589844 60.3125 51.59375 60.265625 51.601562 C 60.101562 51.628906 59.945312 51.75 59.957031 51.929688 C 59.964844 52.019531 59.992188 52.089844 60.027344 52.167969 C 60.039062 52.195312 60.050781 52.21875 60.066406 52.246094 C 60.070312 52.257812 60.074219 52.265625 60.074219 52.269531 C 60.074219 52.269531 60.074219 52.265625 60.070312 52.257812 C 60.074219 52.277344 60.078125 52.285156 60.078125 52.28125 C 60.09375 52.417969 60.195312 52.527344 60.34375 52.527344 L 60.539062 52.527344 C 60.695312 52.527344 60.8125 52.441406 60.878906 52.300781 C 60.921875 52.214844 60.929688 52.132812 60.921875 52.050781 C 60.9375 52.027344 60.949219 52.003906 60.957031 51.976562 C 60.992188 51.851562 60.925781 51.726562 60.820312 51.667969 Z M 60.820312 51.667969 "/>
<path style=" stroke:none;fill-rule:nonzero;fill:rgb(100%,100%,100%);fill-opacity:1;" d="M 39.789062 52.390625 C 39.773438 52.34375 39.75 52.296875 39.722656 52.25 C 39.714844 52.238281 39.707031 52.222656 39.699219 52.210938 C 39.667969 52.089844 39.574219 51.996094 39.4375 51.996094 C 39.378906 51.996094 39.320312 52.019531 39.269531 52.058594 C 39.246094 52.054688 39.21875 52.054688 39.195312 52.054688 C 39.050781 52.066406 38.929688 52.128906 38.855469 52.25 C 38.773438 52.378906 38.792969 52.546875 38.824219 52.6875 C 38.84375 52.761719 38.894531 52.820312 38.960938 52.851562 C 39.007812 52.941406 39.097656 53.003906 39.203125 53.003906 L 39.4375 53.003906 C 39.578125 53.003906 39.660156 52.898438 39.730469 52.796875 C 39.8125 52.683594 39.832031 52.523438 39.789062 52.390625 Z M 39.789062 52.390625 "/>
<path style=" stroke:none;fill-rule:nonzero;fill:rgb(84.705882%,52.156863%,29.803922%);fill-opacity:1;" d="M 66.875 59.351562 C 66.53125 59.351562 66.53125 59.886719 66.875 59.886719 C 67.21875 59.886719 67.21875 59.351562 66.875 59.351562 Z M 66.875 59.351562 "/>
<path style=" stroke:none;fill-rule:nonzero;fill:rgb(84.705882%,52.156863%,29.803922%);fill-opacity:1;" d="M 62.597656 58.285156 C 62.253906 58.285156 62.253906 58.816406 62.597656 58.816406 C 62.945312 58.816406 62.945312 58.285156 62.597656 58.285156 Z M 62.597656 58.285156 "/>
<path style=" stroke:none;fill-rule:nonzero;fill:rgb(84.705882%,52.156863%,29.803922%);fill-opacity:1;" d="M 58.441406 57.335938 C 58.097656 57.335938 58.097656 57.867188 58.441406 57.867188 C 58.785156 57.867188 58.785156 57.335938 58.441406 57.335938 Z M 58.441406 57.335938 "/>
<path style=" stroke:none;fill-rule:nonzero;fill:rgb(84.705882%,52.156863%,29.803922%);fill-opacity:1;" d="M 58.324219 59.113281 C 57.980469 59.113281 57.980469 59.648438 58.324219 59.648438 C 58.667969 59.648438 58.667969 59.113281 58.324219 59.113281 Z M 58.324219 59.113281 "/>
<path style=" stroke:none;fill-rule:nonzero;fill:rgb(84.705882%,52.156863%,29.803922%);fill-opacity:1;" d="M 53.929688 57.097656 C 53.585938 57.097656 53.585938 57.632812 53.929688 57.632812 C 54.273438 57.632812 54.273438 57.097656 53.929688 57.097656 Z M 53.929688 57.097656 "/>
<path style=" stroke:none;fill-rule:nonzero;fill:rgb(84.705882%,52.156863%,29.803922%);fill-opacity:1;" d="M 52.691406 59.550781 C 52.609375 59.464844 52.484375 59.453125 52.386719 59.503906 C 52.285156 59.453125 52.160156 59.464844 52.078125 59.550781 C 51.972656 59.652344 51.972656 59.824219 52.078125 59.925781 C 52.160156 60.007812 52.253906 60.09375 52.378906 60.09375 C 52.511719 60.09375 52.605469 60.015625 52.691406 59.925781 C 52.796875 59.824219 52.796875 59.652344 52.691406 59.550781 Z M 52.691406 59.550781 "/>
<path style=" stroke:none;fill-rule:nonzero;fill:rgb(84.705882%,52.156863%,29.803922%);fill-opacity:1;" d="M 50.128906 56.742188 L 50.007812 56.742188 C 49.664062 56.742188 49.664062 57.277344 50.007812 57.277344 L 50.128906 57.277344 C 50.472656 57.277344 50.472656 56.742188 50.128906 56.742188 Z M 50.128906 56.742188 "/>
<path style=" stroke:none;fill-rule:nonzero;fill:rgb(84.705882%,52.156863%,29.803922%);fill-opacity:1;" d="M 45.585938 56.769531 L 45.585938 56.890625 C 45.585938 57.234375 46.121094 57.234375 46.121094 56.890625 L 46.121094 56.769531 C 46.121094 56.425781 45.585938 56.425781 45.585938 56.769531 Z M 45.585938 56.769531 "/>
<path style=" stroke:none;fill-rule:nonzero;fill:rgb(84.705882%,52.156863%,29.803922%);fill-opacity:1;" d="M 45.679688 59.722656 C 45.59375 59.699219 45.496094 59.71875 45.425781 59.785156 C 45.324219 59.890625 45.324219 60.0625 45.425781 60.164062 C 45.527344 60.261719 45.640625 60.363281 45.792969 60.320312 C 45.953125 60.277344 46 60.125 46 59.976562 C 46 59.78125 45.828125 59.695312 45.679688 59.722656 Z M 45.679688 59.722656 "/>
<path style=" stroke:none;fill-rule:nonzero;fill:rgb(84.705882%,52.156863%,29.803922%);fill-opacity:1;" d="M 42.644531 58.164062 L 42.410156 58.164062 C 42.0625 58.164062 42.0625 58.699219 42.410156 58.699219 L 42.644531 58.699219 C 42.992188 58.699219 42.992188 58.164062 42.644531 58.164062 Z M 42.644531 58.164062 "/>
<path style=" stroke:none;fill-rule:nonzero;fill:rgb(84.705882%,52.156863%,29.803922%);fill-opacity:1;" d="M 39.410156 59.027344 L 39.410156 59.144531 C 39.410156 59.488281 39.945312 59.488281 39.945312 59.144531 L 39.945312 59.027344 C 39.945312 58.679688 39.410156 58.679688 39.410156 59.027344 Z M 39.410156 59.027344 "/>
<path style=" stroke:none;fill-rule:nonzero;fill:rgb(84.705882%,52.156863%,29.803922%);fill-opacity:1;" d="M 35.371094 57.363281 L 35.371094 57.484375 C 35.371094 57.828125 35.90625 57.828125 35.90625 57.484375 L 35.90625 57.363281 C 35.90625 57.019531 35.371094 57.019531 35.371094 57.363281 Z M 35.371094 57.363281 "/>
<path style=" stroke:none;fill-rule:nonzero;fill:rgb(84.705882%,52.156863%,29.803922%);fill-opacity:1;" d="M 35.234375 60.261719 C 35.195312 60.222656 35.15625 60.183594 35.113281 60.140625 C 35.011719 60.039062 34.839844 60.039062 34.738281 60.140625 C 34.632812 60.246094 34.632812 60.417969 34.738281 60.519531 C 34.777344 60.558594 34.816406 60.597656 34.855469 60.636719 C 34.957031 60.742188 35.128906 60.742188 35.234375 60.636719 C 35.335938 60.535156 35.335938 60.363281 35.234375 60.261719 Z M 35.234375 60.261719 "/>
<path style=" stroke:none;fill-rule:nonzero;fill:rgb(84.705882%,52.156863%,29.803922%);fill-opacity:1;" d="M 32.074219 58.640625 L 31.71875 58.640625 C 31.375 58.640625 31.375 59.175781 31.71875 59.175781 L 32.074219 59.175781 C 32.421875 59.175781 32.421875 58.640625 32.074219 58.640625 Z M 32.074219 58.640625 "/>
<path style=" stroke:none;fill-rule:nonzero;fill:rgb(84.705882%,52.156863%,29.803922%);fill-opacity:1;" d="M 65.210938 56.621094 C 64.867188 56.621094 64.867188 57.15625 65.210938 57.15625 C 65.558594 57.15625 65.558594 56.621094 65.210938 56.621094 Z M 65.210938 56.621094 "/>
<path style=" stroke:none;fill-rule:nonzero;fill:rgb(84.705882%,52.156863%,29.803922%);fill-opacity:1;" d="M 68.539062 57.691406 L 68.386719 57.691406 C 68.039062 57.691406 68.039062 58.226562 68.386719 58.226562 L 68.539062 58.226562 C 68.882812 58.226562 68.882812 57.691406 68.539062 57.691406 Z M 68.539062 57.691406 "/>
<path style=" stroke:none;fill-rule:nonzero;fill:rgb(24.313725%,34.509804%,83.921569%);fill-opacity:1;" d="M 67.511719 5.707031 C 67.511719 5.707031 77.933594 16.652344 78.46875 38.011719 C 84.617188 40.148438 84.617188 40.148438 84.617188 40.148438 L 84.089844 12.035156 C 84.089844 12.035156 73.125 7.042969 67.511719 5.707031 Z M 67.511719 5.707031 "/>
<path style=" stroke:none;fill-rule:nonzero;fill:rgb(100%,80%,86.27451%);fill-opacity:1;" d="M 71.148438 65.316406 C 71.148438 66.066406 70.953125 66.800781 70.578125 67.449219 C 70.203125 68.101562 69.664062 68.640625 69.011719 69.015625 C 68.363281 69.390625 67.625 69.585938 66.875 69.585938 C 66.125 69.585938 65.386719 69.390625 64.738281 69.015625 C 64.085938 68.640625 63.546875 68.101562 63.171875 67.449219 C 62.796875 66.800781 62.597656 66.066406 62.597656 65.316406 C 62.597656 64.183594 63.050781 63.09375 63.851562 62.292969 C 64.652344 61.492188 65.742188 61.042969 66.875 61.042969 C 67.625 61.042969 68.363281 61.242188 69.011719 61.617188 C 69.664062 61.988281 70.203125 62.53125 70.578125 63.179688 C 70.953125 63.828125 71.148438 64.566406 71.148438 65.316406 Z M 71.148438 65.316406 "/>
<path style=" stroke:none;fill-rule:nonzero;fill:rgb(100%,80%,86.27451%);fill-opacity:1;" d="M 38.371094 64.78125 C 38.371094 65.914062 37.917969 67 37.117188 67.800781 C 36.316406 68.601562 35.226562 69.050781 34.09375 69.050781 C 32.960938 69.050781 31.871094 68.601562 31.070312 67.800781 C 30.269531 67 29.820312 65.914062 29.820312 64.78125 C 29.820312 63.648438 30.269531 62.5625 31.070312 61.761719 C 31.871094 60.960938 32.960938 60.507812 34.09375 60.507812 C 35.226562 60.507812 36.316406 60.960938 37.117188 61.761719 C 37.917969 62.5625 38.371094 63.648438 38.371094 64.78125 Z M 38.371094 64.78125 "/>
<path style=" stroke:none;fill-rule:nonzero;fill:rgb(74.901961%,47.45098%,14.509804%);fill-opacity:1;" d="M 41.742188 46.707031 C 40.496094 45.992188 39.066406 46.109375 37.847656 46.824219 C 36.957031 47.347656 37.761719 48.730469 38.65625 48.207031 C 39.382812 47.78125 40.179688 47.65625 40.933594 48.089844 C 41.832031 48.601562 42.640625 47.21875 41.742188 46.707031 Z M 41.742188 46.707031 "/>
<path style=" stroke:none;fill-rule:nonzero;fill:rgb(74.901961%,47.45098%,14.509804%);fill-opacity:1;" d="M 63.878906 46.832031 C 62.703125 45.90625 60.792969 45.507812 59.460938 46.347656 C 58.59375 46.902344 59.394531 48.289062 60.273438 47.730469 C 60.953125 47.300781 62.125 47.476562 62.746094 47.964844 C 63.546875 48.59375 64.691406 47.46875 63.878906 46.832031 Z M 63.878906 46.832031 "/>
<path style=" stroke:none;fill-rule:nonzero;fill:rgb(77.647059%,77.647059%,77.647059%);fill-opacity:1;" d="M 67.945312 82.222656 L 67.113281 79.496094 L 62.660156 81.808594 L 60.460938 84.597656 Z M 67.945312 82.222656 "/>
</g>
</svg>
